<svg width="25" height="25" viewBox="0 0 25 25" fill="none" xmlns="http://www.w3.org/2000/svg">
<path d="M12.4997 23.6981C9.5298 23.6981 6.68157 22.5184 4.58155 20.4183C2.48153 18.3183 1.30176 15.4701 1.30176 12.5002C1.30176 9.53035 2.48153 6.68212 4.58155 4.5821C6.68157 2.48208 9.5298 1.30231 12.4997 1.30231C14.2448 1.29653 15.966 1.70721 17.5205 2.50022C17.6122 2.54673 17.6938 2.61084 17.7606 2.68888C17.8275 2.76693 17.8784 2.85738 17.9103 2.95507C17.9422 3.05277 17.9546 3.15579 17.9467 3.25827C17.9388 3.36074 17.9108 3.46065 17.8643 3.55231C17.8177 3.64396 17.7536 3.72555 17.6756 3.79243C17.5976 3.8593 17.5071 3.91015 17.4094 3.94208C17.3117 3.97399 17.2087 3.98636 17.1062 3.97846C17.0037 3.97057 16.9038 3.94257 16.8122 3.89606C15.4787 3.2088 13.9998 2.85158 12.4997 2.85439C10.5944 2.85439 8.73192 3.41924 7.14761 4.47753C5.5633 5.53582 4.3283 7.04005 3.59871 8.80009C2.86912 10.5601 2.6777 12.497 3.04864 14.3658C3.41959 16.2346 4.33624 17.9514 5.68273 19.2994C7.02923 20.6473 8.74512 21.5658 10.6135 21.9388C12.4819 22.3118 14.419 22.1224 16.1798 21.3948C17.9406 20.6671 19.4462 19.4337 20.5062 17.8505C21.5662 16.2674 22.133 14.4055 22.1351 12.5002C22.1405 12.4135 22.1405 12.3265 22.1351 12.2398C22.1158 12.0326 22.1795 11.8262 22.3124 11.666C22.4452 11.5058 22.6362 11.405 22.8434 11.3856C23.0506 11.3663 23.257 11.4301 23.4172 11.5629C23.5774 11.6957 23.6783 11.8868 23.6976 12.094V12.5002C23.6948 15.4693 22.5142 18.3159 20.4148 20.4153C18.3153 22.5147 15.4687 23.6954 12.4997 23.6981Z" fill="#004A80"/>
<path d="M12.3121 16.0523C12.2109 16.0538 12.1104 16.0342 12.0172 15.9948C11.9239 15.9553 11.8399 15.8969 11.7705 15.8231L6.73922 10.8856C6.59292 10.7392 6.51074 10.5406 6.51074 10.3336C6.51074 10.1265 6.59292 9.92797 6.73922 9.78148C6.88877 9.63701 7.08858 9.55625 7.29651 9.55625C7.50445 9.55625 7.70426 9.63701 7.8538 9.78148L12.3226 14.1877L22.3746 4.30231C22.5242 4.15784 22.724 4.07709 22.9319 4.07709C23.1399 4.07709 23.3397 4.15784 23.4892 4.30231C23.6355 4.4488 23.7177 4.64737 23.7177 4.8544C23.7177 5.06143 23.6355 5.26 23.4892 5.40648L12.8851 15.8231C12.8105 15.8987 12.7211 15.9581 12.6225 15.9976C12.5239 16.037 12.4183 16.0556 12.3121 16.0523Z" fill="#ED4F00"/>
</svg>
