<svg width="40" height="40" viewBox="0 0 40 40" fill="none" xmlns="http://www.w3.org/2000/svg">
<circle cx="19.623" cy="19.623" r="19.623" fill="#004A80"/>
<path d="M20.0328 10.6289C16.2012 10.6289 13.083 13.8148 13.083 17.7319C13.083 23.2975 19.3795 29.0441 19.6475 29.2854C19.7579 29.3849 19.8954 29.4343 20.0328 29.4343C20.1703 29.4343 20.3077 29.3849 20.4181 29.2862C20.6861 29.0441 26.9826 23.2975 26.9826 17.7319C26.9826 13.8148 23.8645 10.6289 20.0328 10.6289ZM20.0328 21.5987C17.9039 21.5987 16.1718 19.8412 16.1718 17.6809C16.1718 15.5207 17.9039 13.7631 20.0328 13.7631C22.1618 13.7631 23.8938 15.5207 23.8938 17.6809C23.8938 19.8412 22.1618 21.5987 20.0328 21.5987Z" fill="white"/>
</svg>
