<svg width="40" height="40" viewBox="0 0 40 40" fill="none" xmlns="http://www.w3.org/2000/svg">
<circle cx="20.1152" cy="19.623" r="19.623" fill="#004A80"/>
<g clip-path="url(#clip0_58_2892)">
<path d="M22.2931 20.2349L21.0605 21.4716C20.5606 21.9732 19.6812 21.984 19.1705 21.4716L17.9379 20.2349L13.5107 24.6764C13.6755 24.7526 13.8572 24.798 14.0504 24.798H26.1806C26.3738 24.798 26.5554 24.7526 26.7202 24.6764L22.2931 20.2349Z" fill="white"/>
<path d="M26.1806 14.4492H14.0503C13.8572 14.4492 13.6755 14.4947 13.5107 14.5709L18.2414 19.3173C18.2418 19.3176 18.2421 19.3177 18.2425 19.318C18.2428 19.3183 18.2428 19.3187 18.2428 19.3187L19.781 20.862C19.9444 21.0254 20.2865 21.0254 20.4499 20.862L21.9878 19.319C21.9878 19.319 21.9882 19.3183 21.9885 19.318C21.9885 19.318 21.9892 19.3176 21.9895 19.3173L26.7201 14.5709C26.5554 14.4946 26.3737 14.4492 26.1806 14.4492Z" fill="white"/>
<path d="M12.8934 15.1743C12.8082 15.3467 12.7559 15.5381 12.7559 15.7431V23.5042C12.7559 23.7092 12.8081 23.9006 12.8934 24.073L17.3282 19.6238L12.8934 15.1743Z" fill="white"/>
<path d="M27.3351 15.1743L22.9004 19.6238L27.3351 24.0731C27.4204 23.9007 27.4727 23.7093 27.4727 23.5042V15.7432C27.4727 15.5381 27.4204 15.3467 27.3351 15.1743Z" fill="white"/>
</g>
<defs>
<clipPath id="clip0_58_2892">
<rect width="14.7172" height="14.7172" fill="white" transform="translate(12.7568 12.2646)"/>
</clipPath>
</defs>
</svg>
