<svg width="40" height="40" viewBox="0 0 40 40" fill="none" xmlns="http://www.w3.org/2000/svg">
<circle cx="19.8691" cy="19.623" r="19.623" fill="#004A80"/>
<path d="M17.1367 22.332C17.8564 23.0505 18.6161 23.6992 19.4158 24.2781C20.2155 24.8569 21.0151 25.316 21.8148 25.6553C22.6145 25.9946 23.3717 26.1643 24.0865 26.1643C24.5713 26.1643 25.0236 26.0769 25.4434 25.9023C25.8633 25.7276 26.2431 25.4532 26.583 25.0789C26.7829 24.8594 26.9404 24.6224 27.0553 24.3679C27.1703 24.1184 27.2277 23.8664 27.2277 23.6119C27.2277 23.4223 27.1903 23.2426 27.1153 23.073C27.0403 22.8983 26.9129 22.7486 26.7329 22.6239L24.4313 20.9921C24.2564 20.8724 24.094 20.7826 23.944 20.7227C23.7941 20.6628 23.6516 20.6329 23.5167 20.6329C23.3467 20.6329 23.1818 20.6803 23.0219 20.7751C22.8619 20.8649 22.697 20.9946 22.5271 21.1643L21.9948 21.6882C21.9198 21.7681 21.8248 21.808 21.7099 21.808C21.6499 21.808 21.5924 21.798 21.5374 21.7781C21.4875 21.7581 21.445 21.7406 21.41 21.7257C21.1751 21.6009 20.8752 21.3864 20.5103 21.082C20.1455 20.7726 19.7781 20.4333 19.4083 20.064C19.0434 19.6947 18.706 19.328 18.3962 18.9637C18.0863 18.5994 17.8714 18.3025 17.7514 18.073C17.7314 18.0331 17.7114 17.9882 17.6914 17.9383C17.6764 17.8834 17.6689 17.8285 17.6689 17.7736C17.6689 17.6638 17.7064 17.5715 17.7814 17.4967L18.3137 16.9503C18.4786 16.7806 18.6086 16.6159 18.7035 16.4562C18.7985 16.2966 18.846 16.1319 18.846 15.9622C18.846 15.8275 18.8135 15.6853 18.7485 15.5356C18.6885 15.3859 18.5961 15.2237 18.4711 15.0491L16.8593 12.7811C16.7293 12.6015 16.5744 12.4717 16.3944 12.3919C16.2145 12.3071 16.0246 12.2646 15.8247 12.2646C15.3099 12.2646 14.8275 12.4817 14.3777 12.9158C14.0129 13.2651 13.7455 13.6519 13.5755 14.076C13.4106 14.4952 13.3281 14.9443 13.3281 15.4233C13.3281 16.1419 13.4956 16.8979 13.8304 17.6913C14.1653 18.4797 14.6201 19.2706 15.1949 20.064C15.7697 20.8574 16.4169 21.6134 17.1367 22.332Z" fill="white"/>
</svg>
