<svg width="20" height="20" viewBox="0 0 20 20" fill="none" xmlns="http://www.w3.org/2000/svg">
<g clip-path="url(#clip0_128_191)">
<path fill-rule="evenodd" clip-rule="evenodd" d="M14.2319 3.82253C11.3575 0.948052 6.69701 0.948052 3.82253 3.82253C0.948052 6.69701 0.948052 11.3575 3.82253 14.2319C6.69701 17.1064 11.3575 17.1064 14.2319 14.2319C17.1064 11.3575 17.1064 6.69701 14.2319 3.82253ZM2.64402 2.64402C6.16937 -0.88134 11.8851 -0.88134 15.4104 2.64402C18.7372 5.9707 18.9246 11.2478 15.9728 14.7943L19.7559 18.5774C20.0813 18.9028 20.0813 19.4305 19.7559 19.7559C19.4305 20.0813 18.9028 20.0813 18.5774 19.7559L14.7943 15.9728C11.2478 18.9246 5.9707 18.7372 2.64402 15.4104C-0.88134 11.8851 -0.88134 6.16937 2.64402 2.64402ZM5.99527 4.81675C6.3207 5.14219 6.3207 5.66983 5.99527 5.99527C4.32075 7.66978 4.32075 10.3847 5.99527 12.0592C6.3207 12.3847 6.3207 12.9123 5.99527 13.2378C5.66983 13.5632 5.14219 13.5632 4.81675 13.2378C2.49137 10.9123 2.49137 7.14214 4.81675 4.81675C5.14219 4.49132 5.66983 4.49132 5.99527 4.81675Z" fill="#004A80"/>
</g>
<defs>
<clipPath id="clip0_128_191">
<rect width="20" height="20" fill="white"/>
</clipPath>
</defs>
</svg>
