<svg width="56" height="55" viewBox="0 0 56 55" fill="none" xmlns="http://www.w3.org/2000/svg">
<circle cx="28.4795" cy="27.5" r="27.5" fill="white"/>
<g clip-path="url(#clip0_101_1236)">
<path d="M31.5314 28.3572L29.804 30.0904C29.1035 30.7933 27.871 30.8085 27.1554 30.0904L25.4279 28.3572L19.2236 34.5816C19.4546 34.6884 19.7092 34.7521 19.9799 34.7521H36.9794C37.2501 34.7521 37.5047 34.6884 37.7355 34.5816L31.5314 28.3572Z" fill="#004A80"/>
<path d="M36.9793 20.249H19.9798C19.7091 20.249 19.4545 20.3128 19.2236 20.4195L25.8533 27.0712C25.8538 27.0717 25.8543 27.0717 25.8547 27.0722C25.8552 27.0726 25.8553 27.0732 25.8553 27.0732L28.0109 29.236C28.2399 29.465 28.7193 29.465 28.9483 29.236L31.1036 27.0736C31.1036 27.0736 31.1041 27.0726 31.1045 27.0722C31.1045 27.0722 31.1055 27.0717 31.1059 27.0712L37.7355 20.4195C37.5046 20.3127 37.25 20.249 36.9793 20.249Z" fill="#004A80"/>
<path d="M18.3598 21.2651C18.2403 21.5068 18.167 21.775 18.167 22.0623V32.9387C18.167 33.226 18.2402 33.4942 18.3597 33.7359L24.5748 27.5007L18.3598 21.2651Z" fill="#004A80"/>
<path d="M38.5997 21.2651L32.3848 27.5008L38.5997 33.736C38.7192 33.4944 38.7925 33.2262 38.7925 32.9388V22.0623C38.7925 21.775 38.7192 21.5068 38.5997 21.2651Z" fill="#004A80"/>
</g>
<defs>
<clipPath id="clip0_101_1236">
<rect width="20.625" height="20.625" fill="white" transform="translate(18.167 17.1875)"/>
</clipPath>
</defs>
</svg>
