<svg width="56" height="55" viewBox="0 0 56 55" fill="none" xmlns="http://www.w3.org/2000/svg">
<circle cx="27.7285" cy="27.5" r="27.5" fill="white"/>
<g clip-path="url(#clip0_101_1227)">
<path d="M33.458 16.0417H21.9997C18.8489 16.0417 16.2705 18.619 16.2705 21.7709V33.2292C16.2705 36.38 18.8489 38.9584 21.9997 38.9584H33.458C36.6088 38.9584 39.1872 36.38 39.1872 33.2292V21.7709C39.1872 18.619 36.6088 16.0417 33.458 16.0417ZM27.7288 32.2742C25.0917 32.2742 22.9544 30.1361 22.9544 27.5001C22.9544 24.8629 25.0917 22.7257 27.7288 22.7257C30.3648 22.7257 32.5032 24.8629 32.5032 27.5001C32.5032 30.1361 30.3648 32.2742 27.7288 32.2742ZM33.9355 22.7257C33.1437 22.7257 32.5032 22.0843 32.5032 21.2934C32.5032 20.5025 33.1437 19.8611 33.9355 19.8611C34.7273 19.8611 35.3678 20.5025 35.3678 21.2934C35.3678 22.0843 34.7273 22.7257 33.9355 22.7257Z" fill="#004A80"/>
</g>
<defs>
<clipPath id="clip0_101_1227">
<rect width="22.9167" height="22.9167" fill="white" transform="translate(16.2705 16.0417)"/>
</clipPath>
</defs>
</svg>
