<svg width="14" height="14" viewBox="0 0 14 14" fill="none" xmlns="http://www.w3.org/2000/svg">
<g clip-path="url(#clip0_101_1162)">
<path d="M13.9634 5.32416C13.8726 5.04313 13.6233 4.84354 13.3284 4.81696L9.3227 4.45324L7.73873 0.745803C7.62194 0.474097 7.35595 0.298218 7.06042 0.298218C6.76489 0.298218 6.4989 0.474097 6.3821 0.746439L4.79813 4.45324L0.791782 4.81696C0.497415 4.84417 0.248792 5.04313 0.157411 5.32416C0.0660306 5.60518 0.150423 5.91342 0.373104 6.10773L3.40095 8.76317L2.50811 12.6961C2.44278 12.9853 2.55502 13.2842 2.79496 13.4577C2.92393 13.5509 3.07482 13.5983 3.22698 13.5983C3.35817 13.5983 3.48831 13.5629 3.6051 13.493L7.06042 11.4279L10.5145 13.493C10.7672 13.6451 11.0858 13.6312 11.3252 13.4577C11.5653 13.2837 11.6774 12.9847 11.6121 12.6961L10.7192 8.76317L13.7471 6.10825C13.9698 5.91342 14.0548 5.60571 13.9634 5.32416Z" fill="white" fill-opacity="0.4"/>
</g>
<defs>
<clipPath id="clip0_101_1162">
<rect width="13.8785" height="13.8785" fill="white" transform="translate(0.121094)"/>
</clipPath>
</defs>
</svg>
