<svg width="14" height="14" viewBox="0 0 14 14" fill="none" xmlns="http://www.w3.org/2000/svg">
<g clip-path="url(#clip0_101_1154)">
<path d="M13.8423 5.32416C13.7515 5.04313 13.5022 4.84354 13.2073 4.81696L9.20161 4.45324L7.61764 0.745803C7.50084 0.474097 7.23485 0.298218 6.93932 0.298218C6.64379 0.298218 6.3778 0.474097 6.26101 0.746439L4.67704 4.45324L0.670688 4.81696C0.376322 4.84417 0.127698 5.04313 0.0363176 5.32416C-0.0550632 5.60518 0.029329 5.91342 0.25201 6.10773L3.27986 8.76317L2.38702 12.6961C2.32168 12.9853 2.43392 13.2842 2.67386 13.4577C2.80284 13.5509 2.95372 13.5983 3.10588 13.5983C3.23708 13.5983 3.36721 13.5629 3.48401 13.493L6.93932 11.4279L10.3934 13.493C10.6461 13.6451 10.9647 13.6312 11.2041 13.4577C11.4442 13.2837 11.5563 12.9847 11.491 12.6961L10.5982 8.76317L13.626 6.10825C13.8487 5.91342 13.9337 5.60571 13.8423 5.32416Z" fill="white"/>
</g>
<defs>
<clipPath id="clip0_101_1154">
<rect width="13.8785" height="13.8785" fill="white"/>
</clipPath>
</defs>
</svg>
